<mxfile host="app.diagrams.net" modified="2023-11-05T15:51:25.237Z" agent="Mozilla/5.0 (Windows NT 10.0; Win64; x64) AppleWebKit/537.36 (KHTML, like Gecko) Chrome/118.0.0.0 Safari/537.36" etag="i63vXbzktd2jyZyse1so" version="22.0.8" type="device">
  <diagram name="Page-1" id="m-0aAl3dYG4koM52RgC_">
    <mxGraphModel dx="1071" dy="587" grid="1" gridSize="10" guides="1" tooltips="1" connect="1" arrows="1" fold="1" page="1" pageScale="1" pageWidth="850" pageHeight="1100" math="0" shadow="0">
      <root>
        <mxCell id="0" />
        <mxCell id="1" parent="0" />
        <mxCell id="LVmBWpf0GRepK899oE2r-1" value="«component»&lt;br&gt;«system (C4)»&lt;br&gt;Sistema RobDroneGo" style="html=1;dropTarget=0;whiteSpace=wrap;verticalAlign=top;fillColor=#72c9f7;" parent="1" vertex="1">
          <mxGeometry x="180" y="210" width="800" height="420" as="geometry" />
        </mxCell>
        <mxCell id="LVmBWpf0GRepK899oE2r-2" value="" style="shape=module;jettyWidth=8;jettyHeight=4;fillColor=#72c9f7;" parent="LVmBWpf0GRepK899oE2r-1" vertex="1">
          <mxGeometry x="1" width="20" height="20" relative="1" as="geometry">
            <mxPoint x="-27" y="7" as="offset" />
          </mxGeometry>
        </mxCell>
        <mxCell id="LVmBWpf0GRepK899oE2r-3" value="" style="html=1;rounded=0;fillColor=#72c9f7;" parent="1" vertex="1">
          <mxGeometry x="290" y="200" width="20" height="20" as="geometry" />
        </mxCell>
        <mxCell id="LVmBWpf0GRepK899oE2r-4" value="" style="endArrow=none;html=1;rounded=0;align=center;verticalAlign=top;endFill=0;labelBackgroundColor=none;endSize=2;exitX=0.5;exitY=0;exitDx=0;exitDy=0;" parent="1" source="LVmBWpf0GRepK899oE2r-3" target="LVmBWpf0GRepK899oE2r-5" edge="1">
          <mxGeometry relative="1" as="geometry" />
        </mxCell>
        <mxCell id="LVmBWpf0GRepK899oE2r-5" value="" style="ellipse;html=1;fontSize=11;align=center;fillColor=#72c9f7;points=[];aspect=fixed;resizable=0;verticalAlign=bottom;labelPosition=center;verticalLabelPosition=top;flipH=1;" parent="1" vertex="1">
          <mxGeometry x="190" y="130" width="8" height="8" as="geometry" />
        </mxCell>
        <mxCell id="LVmBWpf0GRepK899oE2r-11" value="«component»&lt;br style=&quot;border-color: var(--border-color);&quot;&gt;«container (C4)»&lt;br&gt;&lt;b&gt;Visualização3D&lt;/b&gt;" style="html=1;dropTarget=0;whiteSpace=wrap;fillColor=#72c9f7;" parent="1" vertex="1">
          <mxGeometry x="735" y="355" width="180" height="90" as="geometry" />
        </mxCell>
        <mxCell id="LVmBWpf0GRepK899oE2r-12" value="" style="shape=module;jettyWidth=8;jettyHeight=4;fillColor=#72c9f7;" parent="LVmBWpf0GRepK899oE2r-11" vertex="1">
          <mxGeometry x="1" width="20" height="20" relative="1" as="geometry">
            <mxPoint x="-27" y="7" as="offset" />
          </mxGeometry>
        </mxCell>
        <mxCell id="LVmBWpf0GRepK899oE2r-20" value="" style="endArrow=none;html=1;rounded=0;entryX=0.5;entryY=1;entryDx=0;entryDy=0;exitX=0.5;exitY=0;exitDx=0;exitDy=0;" parent="1" source="LVmBWpf0GRepK899oE2r-15" target="LVmBWpf0GRepK899oE2r-3" edge="1">
          <mxGeometry width="50" height="50" relative="1" as="geometry">
            <mxPoint x="350" y="400" as="sourcePoint" />
            <mxPoint x="400" y="350" as="targetPoint" />
          </mxGeometry>
        </mxCell>
        <mxCell id="t0kckS6VvSTNu56snM5p-1" value="«component»&lt;br style=&quot;border-color: var(--border-color);&quot;&gt;«container (C4)»&lt;br&gt;&lt;b&gt;MDRoboISEP&lt;/b&gt;" style="html=1;dropTarget=0;whiteSpace=wrap;fillColor=#72c9f7;" parent="1" vertex="1">
          <mxGeometry x="485" y="400" width="180" height="90" as="geometry" />
        </mxCell>
        <mxCell id="t0kckS6VvSTNu56snM5p-2" value="" style="shape=module;jettyWidth=8;jettyHeight=4;fillColor=#72c9f7;" parent="t0kckS6VvSTNu56snM5p-1" vertex="1">
          <mxGeometry x="1" width="20" height="20" relative="1" as="geometry">
            <mxPoint x="-27" y="7" as="offset" />
          </mxGeometry>
        </mxCell>
        <mxCell id="t0kckS6VvSTNu56snM5p-3" value="«component»&lt;br style=&quot;border-color: var(--border-color);&quot;&gt;«container (C4)»&lt;br&gt;&lt;b&gt;Planeamento&lt;/b&gt;" style="html=1;dropTarget=0;whiteSpace=wrap;fillColor=#72c9f7;" parent="1" vertex="1">
          <mxGeometry x="245" y="480" width="180" height="90" as="geometry" />
        </mxCell>
        <mxCell id="t0kckS6VvSTNu56snM5p-4" value="" style="shape=module;jettyWidth=8;jettyHeight=4;fillColor=#72c9f7;" parent="t0kckS6VvSTNu56snM5p-3" vertex="1">
          <mxGeometry x="1" width="20" height="20" relative="1" as="geometry">
            <mxPoint x="-27" y="7" as="offset" />
          </mxGeometry>
        </mxCell>
        <mxCell id="t0kckS6VvSTNu56snM5p-5" value="«component»&lt;br style=&quot;border-color: var(--border-color);&quot;&gt;«container (C4)»&lt;br&gt;&lt;b&gt;Frontend&lt;/b&gt;" style="html=1;dropTarget=0;whiteSpace=wrap;fillColor=#72c9f7;" parent="1" vertex="1">
          <mxGeometry x="245" y="300" width="180" height="90" as="geometry" />
        </mxCell>
        <mxCell id="t0kckS6VvSTNu56snM5p-6" value="" style="shape=module;jettyWidth=8;jettyHeight=4;fillColor=#72c9f7;" parent="t0kckS6VvSTNu56snM5p-5" vertex="1">
          <mxGeometry x="1" width="20" height="20" relative="1" as="geometry">
            <mxPoint x="-27" y="7" as="offset" />
          </mxGeometry>
        </mxCell>
        <mxCell id="LVmBWpf0GRepK899oE2r-15" value="" style="html=1;rounded=0;fillColor=#72c9f7;" parent="1" vertex="1">
          <mxGeometry x="291" y="290" width="20" height="20" as="geometry" />
        </mxCell>
        <mxCell id="t0kckS6VvSTNu56snM5p-10" value="" style="rounded=0;orthogonalLoop=1;jettySize=auto;html=1;endArrow=halfCircle;endFill=0;endSize=6;strokeWidth=1;sketch=0;exitX=1;exitY=0.5;exitDx=0;exitDy=0;" parent="1" source="t0kckS6VvSTNu56snM5p-25" edge="1">
          <mxGeometry relative="1" as="geometry">
            <mxPoint x="630" y="535" as="sourcePoint" />
            <mxPoint x="575" y="370" as="targetPoint" />
          </mxGeometry>
        </mxCell>
        <mxCell id="t0kckS6VvSTNu56snM5p-11" value="" style="rounded=0;orthogonalLoop=1;jettySize=auto;html=1;endArrow=oval;endFill=0;sketch=0;sourcePerimeterSpacing=0;targetPerimeterSpacing=0;endSize=10;exitX=0.5;exitY=0;exitDx=0;exitDy=0;" parent="1" source="t0kckS6VvSTNu56snM5p-1" edge="1">
          <mxGeometry relative="1" as="geometry">
            <mxPoint x="590" y="535" as="sourcePoint" />
            <mxPoint x="575" y="370" as="targetPoint" />
          </mxGeometry>
        </mxCell>
        <mxCell id="t0kckS6VvSTNu56snM5p-12" value="" style="ellipse;whiteSpace=wrap;html=1;align=center;aspect=fixed;fillColor=none;strokeColor=none;resizable=0;perimeter=centerPerimeter;rotatable=0;allowArrows=0;points=[];outlineConnect=1;" parent="1" vertex="1">
          <mxGeometry x="570" y="340" width="10" height="10" as="geometry" />
        </mxCell>
        <mxCell id="t0kckS6VvSTNu56snM5p-13" value="" style="rounded=0;orthogonalLoop=1;jettySize=auto;html=1;endArrow=halfCircle;endFill=0;endSize=6;strokeWidth=1;sketch=0;exitX=0.5;exitY=1;exitDx=0;exitDy=0;" parent="1" source="t0kckS6VvSTNu56snM5p-5" target="t0kckS6VvSTNu56snM5p-15" edge="1">
          <mxGeometry relative="1" as="geometry">
            <mxPoint x="630" y="445" as="sourcePoint" />
          </mxGeometry>
        </mxCell>
        <mxCell id="t0kckS6VvSTNu56snM5p-14" value="" style="rounded=0;orthogonalLoop=1;jettySize=auto;html=1;endArrow=oval;endFill=0;sketch=0;sourcePerimeterSpacing=0;targetPerimeterSpacing=0;endSize=10;exitX=0.5;exitY=0;exitDx=0;exitDy=0;" parent="1" source="t0kckS6VvSTNu56snM5p-3" target="t0kckS6VvSTNu56snM5p-15" edge="1">
          <mxGeometry relative="1" as="geometry">
            <mxPoint x="590" y="445" as="sourcePoint" />
          </mxGeometry>
        </mxCell>
        <mxCell id="t0kckS6VvSTNu56snM5p-15" value="" style="ellipse;whiteSpace=wrap;html=1;align=center;aspect=fixed;fillColor=none;strokeColor=none;resizable=0;perimeter=centerPerimeter;rotatable=0;allowArrows=0;points=[];outlineConnect=1;" parent="1" vertex="1">
          <mxGeometry x="330" y="430" width="10" height="10" as="geometry" />
        </mxCell>
        <mxCell id="t0kckS6VvSTNu56snM5p-16" value="" style="rounded=0;orthogonalLoop=1;jettySize=auto;html=1;endArrow=halfCircle;endFill=0;endSize=6;strokeWidth=1;sketch=0;exitX=0.5;exitY=0;exitDx=0;exitDy=0;" parent="1" source="4DdEzrNZYY_0qSr_jCJp-2" target="t0kckS6VvSTNu56snM5p-18" edge="1">
          <mxGeometry relative="1" as="geometry">
            <mxPoint x="630" y="445" as="sourcePoint" />
          </mxGeometry>
        </mxCell>
        <mxCell id="t0kckS6VvSTNu56snM5p-17" value="" style="rounded=0;orthogonalLoop=1;jettySize=auto;html=1;endArrow=oval;endFill=0;sketch=0;sourcePerimeterSpacing=0;targetPerimeterSpacing=0;endSize=10;exitX=0.5;exitY=0;exitDx=0;exitDy=0;" parent="1" source="LVmBWpf0GRepK899oE2r-11" target="t0kckS6VvSTNu56snM5p-18" edge="1">
          <mxGeometry relative="1" as="geometry">
            <mxPoint x="590" y="445" as="sourcePoint" />
          </mxGeometry>
        </mxCell>
        <mxCell id="t0kckS6VvSTNu56snM5p-18" value="" style="ellipse;whiteSpace=wrap;html=1;align=center;aspect=fixed;fillColor=none;strokeColor=none;resizable=0;perimeter=centerPerimeter;rotatable=0;allowArrows=0;points=[];outlineConnect=1;" parent="1" vertex="1">
          <mxGeometry x="820" y="285" width="10" height="10" as="geometry" />
        </mxCell>
        <mxCell id="t0kckS6VvSTNu56snM5p-19" value="" style="rounded=0;orthogonalLoop=1;jettySize=auto;html=1;endArrow=halfCircle;endFill=0;endSize=6;strokeWidth=1;sketch=0;exitX=1;exitY=0.5;exitDx=0;exitDy=0;" parent="1" source="t0kckS6VvSTNu56snM5p-3" target="t0kckS6VvSTNu56snM5p-21" edge="1">
          <mxGeometry relative="1" as="geometry">
            <mxPoint x="420" y="520" as="sourcePoint" />
          </mxGeometry>
        </mxCell>
        <mxCell id="t0kckS6VvSTNu56snM5p-20" value="" style="rounded=0;orthogonalLoop=1;jettySize=auto;html=1;endArrow=oval;endFill=0;sketch=0;sourcePerimeterSpacing=0;targetPerimeterSpacing=0;endSize=10;exitX=0.5;exitY=1;exitDx=0;exitDy=0;" parent="1" source="t0kckS6VvSTNu56snM5p-1" target="t0kckS6VvSTNu56snM5p-21" edge="1">
          <mxGeometry relative="1" as="geometry">
            <mxPoint x="590" y="445" as="sourcePoint" />
          </mxGeometry>
        </mxCell>
        <mxCell id="t0kckS6VvSTNu56snM5p-21" value="" style="ellipse;whiteSpace=wrap;html=1;align=center;aspect=fixed;fillColor=none;strokeColor=none;resizable=0;perimeter=centerPerimeter;rotatable=0;allowArrows=0;points=[];outlineConnect=1;" parent="1" vertex="1">
          <mxGeometry x="570" y="520" width="10" height="10" as="geometry" />
        </mxCell>
        <mxCell id="t0kckS6VvSTNu56snM5p-22" value="" style="rounded=0;orthogonalLoop=1;jettySize=auto;html=1;endArrow=halfCircle;endFill=0;endSize=6;strokeWidth=1;sketch=0;exitX=0.5;exitY=1;exitDx=0;exitDy=0;" parent="1" source="LVmBWpf0GRepK899oE2r-11" target="t0kckS6VvSTNu56snM5p-24" edge="1">
          <mxGeometry relative="1" as="geometry">
            <mxPoint x="630" y="445" as="sourcePoint" />
          </mxGeometry>
        </mxCell>
        <mxCell id="t0kckS6VvSTNu56snM5p-23" value="" style="rounded=0;orthogonalLoop=1;jettySize=auto;html=1;endArrow=oval;endFill=0;sketch=0;sourcePerimeterSpacing=0;targetPerimeterSpacing=0;endSize=10;exitX=1;exitY=0.75;exitDx=0;exitDy=0;" parent="1" source="t0kckS6VvSTNu56snM5p-1" target="t0kckS6VvSTNu56snM5p-24" edge="1">
          <mxGeometry relative="1" as="geometry">
            <mxPoint x="590" y="445" as="sourcePoint" />
          </mxGeometry>
        </mxCell>
        <mxCell id="t0kckS6VvSTNu56snM5p-24" value="" style="ellipse;whiteSpace=wrap;html=1;align=center;aspect=fixed;fillColor=none;strokeColor=none;resizable=0;perimeter=centerPerimeter;rotatable=0;allowArrows=0;points=[];outlineConnect=1;" parent="1" vertex="1">
          <mxGeometry x="820" y="463" width="10" height="10" as="geometry" />
        </mxCell>
        <mxCell id="t0kckS6VvSTNu56snM5p-25" value="" style="html=1;rounded=0;fillColor=#72c9f7;" parent="1" vertex="1">
          <mxGeometry x="415" y="360" width="20" height="20" as="geometry" />
        </mxCell>
        <mxCell id="t0kckS6VvSTNu56snM5p-27" value="" style="html=1;rounded=0;fillColor=#72c9f7;" parent="1" vertex="1">
          <mxGeometry x="565" y="390" width="20" height="20" as="geometry" />
        </mxCell>
        <mxCell id="t0kckS6VvSTNu56snM5p-30" value="" style="html=1;rounded=0;fillColor=#72c9f7;" parent="1" vertex="1">
          <mxGeometry x="565" y="480" width="20" height="20" as="geometry" />
        </mxCell>
        <mxCell id="t0kckS6VvSTNu56snM5p-31" value="" style="html=1;rounded=0;fillColor=#72c9f7;" parent="1" vertex="1">
          <mxGeometry x="325" y="473" width="20" height="20" as="geometry" />
        </mxCell>
        <mxCell id="t0kckS6VvSTNu56snM5p-32" value="" style="html=1;rounded=0;fillColor=#72c9f7;" parent="1" vertex="1">
          <mxGeometry x="325" y="380" width="20" height="20" as="geometry" />
        </mxCell>
        <mxCell id="t0kckS6VvSTNu56snM5p-33" value="" style="html=1;rounded=0;fillColor=#72c9f7;" parent="1" vertex="1">
          <mxGeometry x="815" y="430" width="20" height="20" as="geometry" />
        </mxCell>
        <mxCell id="t0kckS6VvSTNu56snM5p-34" value="MDRI API" style="text;html=1;align=center;verticalAlign=middle;resizable=0;points=[];autosize=1;strokeColor=none;fillColor=none;" parent="1" vertex="1">
          <mxGeometry x="580" y="355" width="80" height="30" as="geometry" />
        </mxCell>
        <mxCell id="t0kckS6VvSTNu56snM5p-35" value="" style="html=1;rounded=0;fillColor=#72c9f7;" parent="1" vertex="1">
          <mxGeometry x="414" y="515" width="20" height="20" as="geometry" />
        </mxCell>
        <mxCell id="t0kckS6VvSTNu56snM5p-36" value="MDRI Planeamento API" style="text;html=1;align=center;verticalAlign=middle;resizable=0;points=[];autosize=1;strokeColor=none;fillColor=none;" parent="1" vertex="1">
          <mxGeometry x="580" y="510" width="150" height="30" as="geometry" />
        </mxCell>
        <mxCell id="t0kckS6VvSTNu56snM5p-39" value="MDRI Visualização API" style="text;html=1;align=center;verticalAlign=middle;resizable=0;points=[];autosize=1;strokeColor=none;fillColor=none;" parent="1" vertex="1">
          <mxGeometry x="830" y="453" width="150" height="30" as="geometry" />
        </mxCell>
        <mxCell id="t0kckS6VvSTNu56snM5p-40" value="Visualização API" style="text;html=1;align=center;verticalAlign=middle;resizable=0;points=[];autosize=1;strokeColor=none;fillColor=none;" parent="1" vertex="1">
          <mxGeometry x="845" y="305" width="110" height="30" as="geometry" />
        </mxCell>
        <mxCell id="t0kckS6VvSTNu56snM5p-41" value="Planeamento API" style="text;html=1;align=center;verticalAlign=middle;resizable=0;points=[];autosize=1;strokeColor=none;fillColor=none;" parent="1" vertex="1">
          <mxGeometry x="205" y="420" width="120" height="30" as="geometry" />
        </mxCell>
        <mxCell id="t0kckS6VvSTNu56snM5p-45" value="" style="endArrow=none;html=1;rounded=0;align=center;verticalAlign=top;endFill=0;labelBackgroundColor=none;endSize=2;exitX=0.5;exitY=0;exitDx=0;exitDy=0;" parent="1" source="LVmBWpf0GRepK899oE2r-3" target="t0kckS6VvSTNu56snM5p-43" edge="1">
          <mxGeometry relative="1" as="geometry">
            <mxPoint x="304" y="200" as="sourcePoint" />
            <mxPoint x="305" y="150" as="targetPoint" />
          </mxGeometry>
        </mxCell>
        <mxCell id="t0kckS6VvSTNu56snM5p-43" value="" style="ellipse;html=1;fontSize=11;align=center;fillColor=#72c9f7;points=[];aspect=fixed;resizable=0;verticalAlign=bottom;labelPosition=center;verticalLabelPosition=top;flipH=1;" parent="1" vertex="1">
          <mxGeometry x="261" y="90" width="8" height="8" as="geometry" />
        </mxCell>
        <mxCell id="t0kckS6VvSTNu56snM5p-48" value="" style="endArrow=none;html=1;rounded=0;align=center;verticalAlign=top;endFill=0;labelBackgroundColor=none;endSize=2;exitX=0.5;exitY=0;exitDx=0;exitDy=0;" parent="1" source="LVmBWpf0GRepK899oE2r-3" target="t0kckS6VvSTNu56snM5p-49" edge="1">
          <mxGeometry relative="1" as="geometry">
            <mxPoint x="340" y="190" as="sourcePoint" />
            <mxPoint x="315" y="160" as="targetPoint" />
          </mxGeometry>
        </mxCell>
        <mxCell id="t0kckS6VvSTNu56snM5p-49" value="" style="ellipse;html=1;fontSize=11;align=center;fillColor=#72c9f7;points=[];aspect=fixed;resizable=0;verticalAlign=bottom;labelPosition=center;verticalLabelPosition=top;flipH=1;" parent="1" vertex="1">
          <mxGeometry x="345" y="90" width="8" height="8" as="geometry" />
        </mxCell>
        <mxCell id="t0kckS6VvSTNu56snM5p-50" value="" style="endArrow=none;html=1;rounded=0;align=center;verticalAlign=top;endFill=0;labelBackgroundColor=none;endSize=2;exitX=0.5;exitY=0;exitDx=0;exitDy=0;" parent="1" source="LVmBWpf0GRepK899oE2r-3" target="t0kckS6VvSTNu56snM5p-47" edge="1">
          <mxGeometry relative="1" as="geometry">
            <mxPoint x="300" y="200" as="sourcePoint" />
            <mxPoint x="360" y="160" as="targetPoint" />
          </mxGeometry>
        </mxCell>
        <mxCell id="t0kckS6VvSTNu56snM5p-47" value="" style="ellipse;html=1;fontSize=11;align=center;fillColor=#72c9f7;points=[];aspect=fixed;resizable=0;verticalAlign=bottom;labelPosition=center;verticalLabelPosition=top;flipH=1;" parent="1" vertex="1">
          <mxGeometry x="406" y="130" width="8" height="8" as="geometry" />
        </mxCell>
        <mxCell id="t0kckS6VvSTNu56snM5p-52" value="UI Gestor de tarefas" style="text;html=1;align=center;verticalAlign=middle;resizable=0;points=[];autosize=1;strokeColor=none;fillColor=none;" parent="1" vertex="1">
          <mxGeometry x="406" y="119" width="130" height="30" as="geometry" />
        </mxCell>
        <mxCell id="t0kckS6VvSTNu56snM5p-53" value="&lt;span style=&quot;color: rgb(0, 0, 0); font-family: Helvetica; font-size: 12px; font-style: normal; font-variant-ligatures: normal; font-variant-caps: normal; font-weight: 400; letter-spacing: normal; orphans: 2; text-align: center; text-indent: 0px; text-transform: none; widows: 2; word-spacing: 0px; -webkit-text-stroke-width: 0px; background-color: rgb(251, 251, 251); text-decoration-thickness: initial; text-decoration-style: initial; text-decoration-color: initial; float: none; display: inline !important;&quot;&gt;UI Gestor de campus&lt;/span&gt;" style="text;whiteSpace=wrap;html=1;" parent="1" vertex="1">
          <mxGeometry x="355" y="80" width="140" height="40" as="geometry" />
        </mxCell>
        <mxCell id="t0kckS6VvSTNu56snM5p-54" value="&lt;span style=&quot;color: rgb(0, 0, 0); font-family: Helvetica; font-size: 12px; font-style: normal; font-variant-ligatures: normal; font-variant-caps: normal; font-weight: 400; letter-spacing: normal; orphans: 2; text-align: center; text-indent: 0px; text-transform: none; widows: 2; word-spacing: 0px; -webkit-text-stroke-width: 0px; background-color: rgb(251, 251, 251); text-decoration-thickness: initial; text-decoration-style: initial; text-decoration-color: initial; float: none; display: inline !important;&quot;&gt;UI Administrador&lt;/span&gt;" style="text;whiteSpace=wrap;html=1;" parent="1" vertex="1">
          <mxGeometry x="160" y="80" width="140" height="40" as="geometry" />
        </mxCell>
        <mxCell id="t0kckS6VvSTNu56snM5p-55" value="&lt;span style=&quot;color: rgb(0, 0, 0); font-family: Helvetica; font-size: 12px; font-style: normal; font-variant-ligatures: normal; font-variant-caps: normal; font-weight: 400; letter-spacing: normal; orphans: 2; text-align: center; text-indent: 0px; text-transform: none; widows: 2; word-spacing: 0px; -webkit-text-stroke-width: 0px; background-color: rgb(251, 251, 251); text-decoration-thickness: initial; text-decoration-style: initial; text-decoration-color: initial; float: none; display: inline !important;&quot;&gt;UI Utente&lt;/span&gt;" style="text;whiteSpace=wrap;html=1;" parent="1" vertex="1">
          <mxGeometry x="129" y="120" width="140" height="40" as="geometry" />
        </mxCell>
        <mxCell id="t0kckS6VvSTNu56snM5p-56" value="" style="html=1;rounded=0;fillColor=#72c9f7;" parent="1" vertex="1">
          <mxGeometry x="815" y="340" width="20" height="20" as="geometry" />
        </mxCell>
        <mxCell id="4DdEzrNZYY_0qSr_jCJp-1" value="" style="html=1;rounded=0;fillColor=#72c9f7;" vertex="1" parent="1">
          <mxGeometry x="655" y="458" width="20" height="20" as="geometry" />
        </mxCell>
        <mxCell id="4DdEzrNZYY_0qSr_jCJp-2" value="" style="html=1;rounded=0;fillColor=#72c9f7;" vertex="1" parent="1">
          <mxGeometry x="355" y="290" width="20" height="20" as="geometry" />
        </mxCell>
      </root>
    </mxGraphModel>
  </diagram>
</mxfile>
